<?xml version="1.0" encoding="UTF-8"?>
<svg version="1.1" xmlns="http://www.w3.org/2000/svg" width="512" height="512">
<path d="M0 0 C9.8889319 2.7797975 19.53489601 5.7161256 29 9.75 C29.92554688 10.12898438 30.85109375 10.50796875 31.8046875 10.8984375 C40.83452864 14.6914602 49.39497622 19.34319359 58 24 C59.07646066 101.7701428 47.57406759 172.05631019 -8.03125 230.12109375 C-12.14889545 234.32296376 -16.53431232 238.17432231 -21 242 C-22.09007753 242.942438 -23.17990107 243.88516982 -24.26953125 244.828125 C-30.17909008 249.93128121 -36.12067204 254.96867394 -42.24609375 259.8125 C-47.23755777 263.77735085 -52.1716077 267.81323022 -57.11328125 271.83984375 C-59.39378708 273.69768627 -61.68142255 275.54388772 -63.98046875 277.37890625 C-69.88393576 282.11388791 -75.4669323 287.11633572 -80.96728516 292.30859375 C-83.82398917 295.00274823 -86.71022725 297.62645182 -89.7109375 300.16015625 C-92.13723712 302.22149997 -94.32755172 304.30172851 -96.375 306.75 C-98.20599565 308.91316743 -100.03832121 311.04058428 -101.984375 313.1015625 C-114.26677383 326.14600797 -123.84571696 341.11065961 -132 357 C-132.3810791 357.72703125 -132.7621582 358.4540625 -133.15478516 359.203125 C-147.60045337 386.97426049 -155.17670901 418.07022389 -159 449 C-159.14646973 450.16716553 -159.14646973 450.16716553 -159.29589844 451.35791016 C-160.43024203 460.5453294 -161.26049269 469.71698545 -161.75390625 478.9609375 C-161.95553335 481.45087222 -162.28960931 483.61637506 -163 486 C-177.04123209 481.53403471 -190.68868007 474.19351161 -203.375 466.75 C-203.99608643 466.38712891 -204.61717285 466.02425781 -205.25708008 465.65039062 C-206.48677114 464.90840643 -207.70158431 464.14124706 -208.90087891 463.35107422 C-210.53326497 462.30040843 -212.21973737 461.33359597 -213.92333984 460.40283203 C-217.09480024 458.48801665 -219.53889453 456.77584035 -222 454 C-223.1507404 449.31793927 -222.55246619 445.10765611 -221.875 440.375 C-221.73626465 439.09117432 -221.5975293 437.80734863 -221.45458984 436.48461914 C-221.0255289 432.64717247 -220.51904378 428.82616681 -220 425 C-219.76156862 422.97052454 -219.52682753 420.9406099 -219.296875 418.91015625 C-218.66441428 413.58328623 -217.87902108 408.29146214 -217 403 C-216.86368164 402.17806152 -216.72736328 401.35612305 -216.58691406 400.50927734 C-206.9975832 344.57889604 -178.84428933 298.64456307 -134.80078125 263.26953125 C-131.71804781 260.77152828 -128.70295056 258.20327804 -125.6875 255.625 C-120.58750125 251.27911924 -115.37279093 247.10422448 -110.09057617 242.98266602 C-104.65489644 238.74046097 -99.30142793 234.40925439 -94 230 C-92.98035156 229.16726562 -91.96070313 228.33453125 -90.91015625 227.4765625 C-75.96106788 215.10956923 -61.5685568 201.37784353 -50.17822266 185.61816406 C-48.99361259 183.99122757 -47.77286576 182.39757663 -46.54296875 180.8046875 C-34.43018758 164.84824428 -25.811815 146.75633053 -19 128 C-18.31357422 126.16695312 -18.31357422 126.16695312 -17.61328125 124.296875 C-11.4107303 106.84364016 -7.52105799 88.32877295 -5 70 C-4.8467627 68.97664551 -4.69352539 67.95329102 -4.53564453 66.89892578 C-2.64484716 53.32808366 -2.08183637 39.67387521 -1.375 26 C-1.24010282 23.4713264 -1.10469016 20.94268024 -0.96875 18.4140625 C-0.63989236 12.27634527 -0.31738959 6.13832039 0 0 Z " fill="#000000" transform="translate(326,9)"/>
<path d="M0 0 C14.05353108 5.32621075 25.8761817 19.80180082 36.4375 30.3125 C37.11192139 30.98224854 37.78634277 31.65199707 38.48120117 32.34204102 C39.76065354 33.62565317 41.02830021 34.92116697 42.2824707 36.22949219 C43.93512461 37.97786068 43.93512461 37.97786068 45.56713867 39.38769531 C48.80826392 42.52719449 49.35023241 45.20037669 49.55859375 49.5078125 C49.54713103 51.71388119 49.5048304 53.91992924 49.4375 56.125 C49.41719727 57.31424072 49.39689453 58.50348145 49.37597656 59.72875977 C47.79891121 130.41375677 31.34762597 189.32113488 -20.20898438 239.31103516 C-23.41372782 242.33317463 -26.79776488 245.0973078 -30.25390625 247.82421875 C-33.42017547 250.33291286 -36.49067743 252.93984218 -39.5625 255.5625 C-44.95770954 260.15063926 -50.45494133 264.59397408 -56 269 C-62.98749489 274.57139016 -69.67681911 280.36526389 -76.22265625 286.44140625 C-78.48930455 288.5295281 -80.78332891 290.56006496 -83.125 292.5625 C-127.30259365 331.06926382 -146.11746469 387.27625384 -152 444 C-152.20632498 445.90632657 -152.41334464 447.8125781 -152.62109375 449.71875 C-153.09877804 454.14411952 -153.55606777 458.57112315 -154 463 C-176.82946263 464.0010483 -198.98868295 459.75644304 -221 454 C-221.15454445 443.83802437 -220.78132618 433.87606041 -219.8125 423.75 C-219.7155484 422.72551254 -219.7155484 422.72551254 -219.61663818 421.68032837 C-218.26414885 407.62187858 -216.0145064 393.80229723 -213 380 C-212.81211914 379.13665039 -212.62423828 378.27330078 -212.43066406 377.38378906 C-206.20088858 349.65518055 -194.57236748 322.43025747 -177 300 C-176.34773438 299.13890625 -175.69546875 298.2778125 -175.0234375 297.390625 C-165.030195 284.47754621 -153.3991142 272.59597504 -141 262 C-139.91110586 261.05900146 -138.82259568 260.11755852 -137.734375 259.17578125 C-131.71606303 253.97818571 -125.66015787 248.85541897 -119.421875 243.921875 C-115.83950676 241.07909246 -112.30846595 238.17473536 -108.7734375 235.2734375 C-106.96982309 233.79498175 -105.16270897 232.32078161 -103.3515625 230.8515625 C-100.55648532 228.58107458 -97.77706549 226.29247688 -95 224 C-93.98808594 223.17628906 -92.97617187 222.35257813 -91.93359375 221.50390625 C-76.04982449 208.38201271 -61.0804145 193.72205027 -49 177 C-48.18466803 175.93437551 -47.36693169 174.8705866 -46.546875 173.80859375 C-35.16512691 158.81636189 -26.40307799 141.66782432 -20 124 C-19.70786621 123.19771973 -19.41573242 122.39543945 -19.11474609 121.56884766 C-5.07900281 82.48585263 -0.9187855 41.30473821 0 0 Z " fill="#000000" transform="translate(406,49)"/>
<path d="M0 0 C10.26728561 -0.14824078 20.25455213 -0.07551575 30.4375 1.4375 C31.42814453 1.57220703 32.41878906 1.70691406 33.43945312 1.84570312 C37.09787877 2.35623904 40.48893593 2.82964531 44 4 C44.82170782 61.00755993 40.43364361 126.54296434 5 174 C4.28199219 174.99902344 3.56398438 175.99804688 2.82421875 177.02734375 C-1.45531713 182.88860792 -5.98181923 188.38957149 -10.90625 193.71875 C-12.71162762 195.68580323 -14.41992004 197.69694453 -16.125 199.75 C-24.10383881 208.89783148 -33.54166033 217.03738969 -43.00390625 224.6015625 C-46.06663874 227.05334575 -49.08968905 229.54834062 -52.1105957 232.05126953 C-58.07491693 236.99122735 -64.07101427 241.87458442 -70.1875 246.625 C-80.16136664 254.39273792 -89.67474747 262.67635341 -98.94262695 271.27075195 C-101.51076702 273.65082006 -104.11106216 275.96031458 -106.8125 278.1875 C-110.63775871 281.43484193 -113.76898245 285.17462698 -117 289 C-117.81339844 289.91394531 -118.62679687 290.82789063 -119.46484375 291.76953125 C-154.97847354 331.98416188 -170.45731887 384.25633875 -175.25537109 436.79638672 C-175.80773979 442.80773979 -175.80773979 442.80773979 -178 445 C-187.16819075 436.03705547 -196.20027402 427.20078885 -204 417 C-204.83590617 415.94165381 -205.67321667 414.88441571 -206.51171875 413.828125 C-211.24269555 407.81213746 -211.24269555 407.81213746 -212.62841797 405.89111328 C-213.67104128 404.45356253 -214.76270476 403.05143436 -215.87548828 401.66748047 C-221.70970351 393.76743659 -221.66856548 387.66617007 -220.625 378.125 C-220.49968187 376.74242764 -220.37707312 375.3596072 -220.25708008 373.9765625 C-219.89548291 369.97693759 -219.45560176 365.99001408 -219 362 C-218.83201904 360.46037598 -218.83201904 360.46037598 -218.66064453 358.88964844 C-213.91605108 316.86187678 -200.59053473 274.87971129 -172 243 C-171.24976563 242.12859375 -170.49953125 241.2571875 -169.7265625 240.359375 C-149.20540869 216.80079409 -121.75703822 200.88748529 -95.49609375 184.58203125 C-52.77519509 157.91863112 -18.31978682 124.92768713 -6.390625 74.41992188 C-5.04485491 68.31394473 -3.95743172 62.17791591 -3 56 C-2.83008545 54.92105469 -2.83008545 54.92105469 -2.65673828 53.8203125 C-0.00904572 36.08537337 -0.34722525 17.89339201 0 0 Z " fill="#000000" transform="translate(260,0)"/>
<path d="M0 0 C0.66 0 1.32 0 2 0 C12.13578132 18.6710286 21.05000951 37.55190643 27 58 C27.30345337 58.96256714 27.30345337 58.96256714 27.61303711 59.94458008 C29.72157968 67.63138407 29.09995125 75.55537827 28.8125 83.4375 C28.7747496 84.5924295 28.7747496 84.5924295 28.73623657 85.77069092 C27.40618125 125.61669554 21.51412347 166.27843199 -8.95703125 194.83203125 C-20.19631098 204.9213703 -33.2687692 212.70635468 -46.06274414 220.62744141 C-60.30083281 229.44462172 -73.84805708 238.38958752 -86 250 C-86.67160156 250.6084375 -87.34320313 251.216875 -88.03515625 251.84375 C-120.20680925 282.03265699 -125.19360792 328.59443713 -128 370 C-152.03217784 378.48908808 -176.46234005 384.67039113 -202 386 C-200.94939677 339.93104857 -189.91411633 291.83512635 -161 255 C-160.36707031 254.14664063 -159.73414063 253.29328125 -159.08203125 252.4140625 C-147.63660318 237.56470473 -133.21069398 224.41521347 -118.6875 212.625 C-117.75292969 211.86445313 -116.81835938 211.10390625 -115.85546875 210.3203125 C-114.91316406 209.55460938 -113.97085938 208.78890625 -113 208 C-110.24487529 205.74757839 -107.49149661 203.49303612 -104.73828125 201.23828125 C-102.94680319 199.77392044 -101.15263362 198.31284469 -99.35546875 196.85546875 C-40.69312986 149.18695033 -9.71865872 95.88693166 -1.63623047 19.56494141 C-1.00639614 13.0497699 -0.46601013 6.52887775 0 0 Z " fill="#000000" transform="translate(476,126)"/>
<path d="M0 0 C0.64563985 45.0623507 0.64563985 45.0623507 -3 62 C-3.29801514 63.40258057 -3.29801514 63.40258057 -3.60205078 64.83349609 C-9.13031476 89.93222866 -19.33150105 112.21003937 -37.56689453 130.55224609 C-38.90762985 131.90668569 -40.21871648 133.29029488 -41.52734375 134.67578125 C-56.62672566 150.41144182 -76.00529292 161.54150914 -94.33984375 173.06640625 C-114.93356757 186.01701051 -135.22193963 199.27927932 -153 216 C-153.56380371 216.52980469 -154.12760742 217.05960938 -154.70849609 217.60546875 C-192.00418136 252.94553783 -210.19490325 301.55127077 -216.5078125 351.796875 C-216.67023438 352.52390625 -216.83265625 353.2509375 -217 354 C-217.66 354.33 -218.32 354.66 -219 355 C-224.73402016 342.08270184 -228.47675874 328.66370749 -232 315 C-232.20971436 314.20634033 -232.41942871 313.41268066 -232.63549805 312.5949707 C-234.01146326 307.01204549 -234.3492305 301.67742723 -234.3125 295.9375 C-234.30686035 294.9885083 -234.3012207 294.0395166 -234.29541016 293.06176758 C-233.87332966 267.52589783 -229.14717922 241.10248268 -218 218 C-217.44441406 216.84371094 -216.88882813 215.68742188 -216.31640625 214.49609375 C-201.34236173 185.2050644 -175.56914719 167.71595361 -148.4765625 150.80859375 C-114.91359253 129.83713697 -86.75925818 105.76330311 -77 66 C-74.20111067 52.85303827 -72.93500309 39.79942769 -72.4375 26.375 C-72.37272461 24.72564453 -72.37272461 24.72564453 -72.30664062 23.04296875 C-72.20173594 20.36207118 -72.09957274 17.68109999 -72 15 C-49.14728762 7.3998408 -24.31620699 0 0 0 Z " fill="#000000" transform="translate(238,0)"/>
<path d="M0 0 C0.33 0 0.66 0 1 0 C0.52253916 7.49737004 -0.93283399 14.41337049 -3 21.625 C-3.31050293 22.71039063 -3.62100586 23.79578125 -3.94091797 24.9140625 C-13.59029571 57.85060518 -28.88347095 87.02402102 -50 114 C-50.42442383 114.54446777 -50.84884766 115.08893555 -51.28613281 115.64990234 C-62.97987107 130.47973108 -76.84001274 144.71866445 -92 156 C-93.12004424 156.86034837 -94.23981722 157.72104995 -95.359375 158.58203125 C-104.80935243 165.75844412 -114.74868301 172.03501205 -125 178 C-125.8034082 178.47211914 -126.60681641 178.94423828 -127.43457031 179.43066406 C-128.63098145 180.11854004 -128.63098145 180.11854004 -129.8515625 180.8203125 C-130.57424316 181.23812988 -131.29692383 181.65594727 -132.04150391 182.08642578 C-134 183 -134 183 -137 183 C-136.02707785 146.75864974 -126.99118334 111.86120306 -100.09936523 86.18530273 C-94.42223619 80.97331529 -88.3805764 76.64848025 -81.9375 72.4375 C-80.90109375 71.75204102 -79.8646875 71.06658203 -78.796875 70.36035156 C-71.44454971 65.52457911 -63.98901377 60.87002861 -56.5 56.25 C-32.41437335 41.31726001 -13.95101185 24.91252116 0 0 Z " fill="#000000" transform="translate(507,302)"/>
<path d="M0 0 C1.08573804 29.15407701 -6.18811294 56.9993041 -26 79 C-39.96186829 93.48401946 -58.16634906 103.75017146 -75.09228516 114.3046875 C-88.58974946 122.7304416 -101.49575355 131.96611457 -113 143 C-113.82886719 143.77730469 -114.65773438 144.55460938 -115.51171875 145.35546875 C-123.51247551 153.06217013 -129.90142817 161.75642476 -136 171 C-137.07103631 167.78689106 -136.98871685 167.15768672 -136.06640625 164.0703125 C-135.8338916 163.2855957 -135.60137695 162.50087891 -135.36181641 161.69238281 C-135.09804199 160.84514648 -134.83426758 159.99791016 -134.5625 159.125 C-134.29099121 158.24166992 -134.01948242 157.35833984 -133.73974609 156.44824219 C-128.7963798 140.69282517 -122.83431241 125.54045424 -115 111 C-114.65356445 110.34725098 -114.30712891 109.69450195 -113.95019531 109.02197266 C-102.74158306 87.99428792 -88.49750359 69.14614058 -72 52 C-71.44940918 51.42217773 -70.89881836 50.84435547 -70.33154297 50.24902344 C-62.64914764 42.21792675 -54.69362396 34.96125546 -45.77539062 28.32666016 C-43.98657115 26.9899653 -42.21935568 25.62807558 -40.453125 24.26171875 C-30.82409368 16.90507122 -20.57875161 10.8811148 -10 5 C-9.16307617 4.52788086 -8.32615234 4.05576172 -7.46386719 3.56933594 C-6.64821289 3.11075195 -5.83255859 2.65216797 -4.9921875 2.1796875 C-4.25081543 1.76187012 -3.50944336 1.34405273 -2.74560547 0.91357422 C-1 0 -1 0 0 0 Z " fill="#000000" transform="translate(144,25)"/>
</svg>
